<svg width="30" height="28" viewBox="0 0 30 28" fill="none" xmlns="http://www.w3.org/2000/svg">
<rect opacity="0.5" x="0.5" y="0.5" width="29" height="27" rx="5.5" fill="#121212" stroke="#1E1E1E"/>
<path d="M16.9031 6.00047C16.8863 5.99984 13.1137 5.99984 13.0969 6.00047C11.3869 6.01547 10 7.41173 10 9.12488V17.875C10 19.5981 11.4019 21 13.125 21H16.875C18.5981 21 20 19.5981 20 17.875V9.1255C20 7.41173 18.6131 6.01609 16.9031 6.00047ZM18.75 17.875C18.75 18.9087 17.9088 19.75 16.875 19.75H13.125C12.0912 19.75 11.25 18.9087 11.25 17.875V9.1255C11.25 8.21737 11.8988 7.45861 12.7569 7.28673L13.1906 8.15487C13.2962 8.36674 13.5131 8.50049 13.75 8.50049H16.25C16.4869 8.50049 16.7031 8.36674 16.8094 8.15487L17.2431 7.28673C18.1012 7.45798 18.75 8.21737 18.75 9.1255V17.875ZM15.625 18.5H14.375C14.03 18.5 13.75 18.22 13.75 17.875C13.75 17.53 14.03 17.25 14.375 17.25H15.625C15.97 17.25 16.25 17.53 16.25 17.875C16.25 18.22 15.97 18.5 15.625 18.5Z" fill="white"/>
</svg>
